{
  "accessors": [
    {
      "bufferView": 2,
      "componentType": 5126,
      "count": 4270,
      "max": [
        0.1461404711008072,
        1.4598623514175415,
        0.42408081889152527
      ],
      "min": [
        -0.09039535373449326,
        -1.3201994895935059,
        -0.3539011776447296
      ],
      "type": "VEC3"
    },
    {
      "bufferView": 2,
      "byteOffset": 51240,
      "componentType": 5126,
      "count": 4270,
      "max": [
        1.0,
        1.0,
        1.0
      ],
      "min": [
        -1.0,
        -1.0,
        -1.0
      ],
      "type": "VEC3"
    },
    {
      "bufferView": 3,
      "componentType": 5126,
      "count": 4270,
      "max": [
        1.0,
        1.0,
        1.0,
        1.0
      ],
      "min": [
        -1.0,
        -1.0,
        -1.0,
        -1.0
      ],
      "type": "VEC4"
    },
    {
      "bufferView": 1,
      "componentType": 5126,
      "count": 4270,
      "max": [
        0.995660662651062,
        0.9970363974571228
      ],
      "min": [
        0.0029635399114340544,
        0.0029635399114340544
      ],
      "type": "VEC2"
    },
    {
      "bufferView": 1,
      "byteOffset": 34160,
      "componentType": 5126,
      "count": 4270,
      "max": [
        0.995660662651062,
        0.9970363974571228
      ],
      "min": [
        0.0029635399114340544,
        0.0029635399114340544
      ],
      "type": "VEC2"
    },
    {
      "bufferView": 0,
      "componentType": 5125,
      "count": 10770,
      "type": "SCALAR"
    },
    {
      "bufferView": 2,
      "byteOffset": 102480,
      "componentType": 5126,
      "count": 42,
      "max": [
        0.039811424911022186,
        0.28062716126441956,
        0.307525634765625
      ],
      "min": [
        -0.039811424911022186,
        0.09790704399347305,
        -0.3876588046550751
      ],
      "type": "VEC3"
    },
    {
      "bufferView": 2,
      "byteOffset": 102984,
      "componentType": 5126,
      "count": 42,
      "max": [
        1.0,
        1.0,
        1.0
      ],
      "min": [
        -1.0,
        -1.0,
        -1.0
      ],
      "type": "VEC3"
    },
    {
      "bufferView": 3,
      "byteOffset": 68320,
      "componentType": 5126,
      "count": 42,
      "max": [
        1.0,
        1.0,
        1.5212583022899245e-22,
        1.0
      ],
      "min": [
        -1.0,
        -1.0,
        -3.6731100294673524e-07,
        1.0
      ],
      "type": "VEC4"
    },
    {
      "bufferView": 1,
      "byteOffset": 68320,
      "componentType": 5126,
      "count": 42,
      "max": [
        0.8153059482574463,
        0.9994163513183594
      ],
      "min": [
        0.0005837082862854004,
        0.0005837082862854004
      ],
      "type": "VEC2"
    },
    {
      "bufferView": 1,
      "byteOffset": 68656,
      "componentType": 5126,
      "count": 42,
      "max": [
        0.8153059482574463,
        0.9994163513183594
      ],
      "min": [
        0.0005837082862854004,
        0.0005837082862854004
      ],
      "type": "VEC2"
    },
    {
      "bufferView": 0,
      "byteOffset": 43080,
      "componentType": 5125,
      "count": 60,
      "type": "SCALAR"
    },
    {
      "bufferView": 2,
      "byteOffset": 103488,
      "componentType": 5126,
      "count": 1104,
      "max": [
        0.13444946706295013,
        0.2569032311439514,
        0.133073091506958
      ],
      "min": [
        -0.10676465183496475,
        -0.25943121314048767,
        -0.20458456873893738
      ],
      "type": "VEC3"
    },
    {
      "bufferView": 2,
      "byteOffset": 116736,
      "componentType": 5126,
      "count": 1104,
      "max": [
        1.0,
        1.0,
        1.0
      ],
      "min": [
        -1.0,
        -1.0,
        -1.0
      ],
      "type": "VEC3"
    },
    {
      "bufferView": 3,
      "byteOffset": 68992,
      "componentType": 5126,
      "count": 1104,
      "max": [
        1.0,
        1.0,
        1.0,
        1.0
      ],
      "min": [
        -1.0,
        -1.0,
        -1.0,
        1.0
      ],
      "type": "VEC4"
    },
    {
      "bufferView": 1,
      "byteOffset": 68992,
      "componentType": 5126,
      "count": 1104,
      "max": [
        0.9981915950775146,
        0.9685266613960266
      ],
      "min": [
        0.001808358822017908,
        0.001808358822017908
      ],
      "type": "VEC2"
    },
    {
      "bufferView": 1,
      "byteOffset": 77824,
      "componentType": 5126,
      "count": 1104,
      "max": [
        0.9981915950775146,
        0.9685266613960266
      ],
      "min": [
        0.001808358822017908,
        0.001808358822017908
      ],
      "type": "VEC2"
    },
    {
      "bufferView": 1,
      "byteOffset": 86656,
      "componentType": 5126,
      "count": 1104,
      "max": [
        0.9981915950775146,
        0.9685266613960266
      ],
      "min": [
        0.001808358822017908,
        0.001808358822017908
      ],
      "type": "VEC2"
    },
    {
      "bufferView": 0,
      "byteOffset": 43320,
      "componentType": 5125,
      "count": 3264,
      "type": "SCALAR"
    }
  ],
  "asset": {
    "extras": {
      "author": "Frostoise (https://sketchfab.com/Frostoise)",
      "license": "CC-BY-4.0 (http://creativecommons.org/licenses/by/4.0/)",
      "source": "https://sketchfab.com/3d-models/ar-h470-4b38c160243743d681d6fdaf3bd77ddb",
      "title": "AR-H470"
    },
    "generator": "Sketchfab-13.74.0",
    "version": "2.0"
  },
  "bufferViews": [
    {
      "buffer": 0,
      "byteLength": 56376,
      "name": "floatBufferViews",
      "target": 34963
    },
    {
      "buffer": 0,
      "byteLength": 95488,
      "byteOffset": 56376,
      "byteStride": 8,
      "name": "floatBufferViews",
      "target": 34962
    },
    {
      "buffer": 0,
      "byteLength": 129984,
      "byteOffset": 151864,
      "byteStride": 12,
      "name": "floatBufferViews",
      "target": 34962
    },
    {
      "buffer": 0,
      "byteLength": 86656,
      "byteOffset": 281848,
      "byteStride": 16,
      "name": "floatBufferViews",
      "target": 34962
    }
  ],
  "buffers": [
    {
      "byteLength": 368504,
      "uri": "scene.bin"
    }
  ],
  "images": [
    {
      "uri": "textures/MainWeapon_baseColor.png"
    },
    {
      "uri": "textures/MainWeapon_metallicRoughness.png"
    },
    {
      "uri": "textures/MainWeapon_normal.png"
    },
    {
      "uri": "textures/Clip_baseColor.png"
    },
    {
      "uri": "textures/Clip_metallicRoughness.png"
    },
    {
      "uri": "textures/Clip_normal.png"
    },
    {
      "uri": "textures/Scope_baseColor.png"
    },
    {
      "uri": "textures/Scope_metallicRoughness.png"
    },
    {
      "uri": "textures/Scope_emissive.png"
    },
    {
      "uri": "textures/Scope_normal.png"
    }
  ],
  "materials": [
    {
      "doubleSided": true,
      "name": "MainWeapon",
      "normalTexture": {
        "index": 2
      },
      "occlusionTexture": {
        "index": 1
      },
      "pbrMetallicRoughness": {
        "baseColorTexture": {
          "index": 0
        },
        "metallicRoughnessTexture": {
          "index": 1
        }
      }
    },
    {
      "doubleSided": true,
      "name": "Clip",
      "normalTexture": {
        "index": 5
      },
      "occlusionTexture": {
        "index": 4
      },
      "pbrMetallicRoughness": {
        "baseColorTexture": {
          "index": 3
        },
        "metallicRoughnessTexture": {
          "index": 4
        }
      }
    },
    {
      "alphaMode": "BLEND",
      "doubleSided": true,
      "emissiveFactor": [
        1.0,
        1.0,
        1.0
      ],
      "emissiveTexture": {
        "index": 8
      },
      "name": "Scope",
      "normalTexture": {
        "index": 9
      },
      "occlusionTexture": {
        "index": 7
      },
      "pbrMetallicRoughness": {
        "baseColorTexture": {
          "index": 6
        },
        "metallicRoughnessTexture": {
          "index": 7
        }
      }
    }
  ],
  "meshes": [
    {
      "name": "Cube.015_MainWeapon_0",
      "primitives": [
        {
          "attributes": {
            "NORMAL": 1,
            "POSITION": 0,
            "TANGENT": 2,
            "TEXCOORD_0": 3,
            "TEXCOORD_1": 4
          },
          "indices": 5,
          "material": 0,
          "mode": 4
        }
      ]
    },
    {
      "name": "Cube.016_Clip_0",
      "primitives": [
        {
          "attributes": {
            "NORMAL": 7,
            "POSITION": 6,
            "TANGENT": 8,
            "TEXCOORD_0": 9,
            "TEXCOORD_1": 10
          },
          "indices": 11,
          "material": 1,
          "mode": 4
        }
      ]
    },
    {
      "name": "Cylinder.006_Scope_0",
      "primitives": [
        {
          "attributes": {
            "NORMAL": 13,
            "POSITION": 12,
            "TANGENT": 14,
            "TEXCOORD_0": 15,
            "TEXCOORD_1": 16,
            "TEXCOORD_2": 17
          },
          "indices": 18,
          "material": 2,
          "mode": 4
        }
      ]
    }
  ],
  "nodes": [
    {
      "children": [
        1
      ],
      "matrix": [
        1.0,
        0.0,
        0.0,
        0.0,
        0.0,
        0.2651222646236422,
        -0.96421480178833,
        0.0,
        0.0,
        0.96421480178833,
        0.2651222646236422,
        0.0,
        0.0,
        0.0,
        0.0,
        1.0
      ],
      "name": "Sketchfab_model"
    },
    {
      "children": [
        2
      ],
      "matrix": [
        0.009999999776482582,
        0.0,
        0.0,
        0.0,
        0.0,
        0.0,
        0.009999999776482582,
        0.0,
        0.0,
        -0.009999999776482582,
        0.0,
        0.0,
        0.0,
        0.0,
        0.0,
        1.0
      ],
      "name": "0c73220bf0a9444688e20eb7ac47ff43.fbx"
    },
    {
      "children": [
        3,
        5,
        7
      ],
      "name": "RootNode"
    },
    {
      "children": [
        4
      ],
      "matrix": [
        100.0,
        0.0,
        0.0,
        0.0,
        0.0,
        -1.629206793918314e-05,
        -99.99999999999868,
        0.0,
        0.0,
        99.99999999999868,
        -1.629206793918314e-05,
        0.0,
        1.6697945042182076e-14,
        75.20085906982422,
        -92.9756088256836,
        1.0
      ],
      "name": "Cube.015"
    },
    {
      "mesh": 0,
      "name": "Cube.015_MainWeapon_0"
    },
    {
      "children": [
        6
      ],
      "matrix": [
        100.0,
        -2.190272088691154e-14,
        -2.585259433863596e-14,
        0.0,
        -9.072231643935648e-15,
        56.20528234112372,
        -82.71014304686898,
        0.0,
        3.264629541725669e-14,
        82.71014304686898,
        56.20528234112372,
        0.0,
        3.947560204745461e-15,
        30.003421783447266,
        -90.6274185180664,
        1.0
      ],
      "name": "Cube.016"
    },
    {
      "mesh": 1,
      "name": "Cube.016_Clip_0"
    },
    {
      "children": [
        8
      ],
      "matrix": [
        100.0,
        0.0,
        0.0,
        0.0,
        0.0,
        -1.629206793918314e-05,
        -99.99999999999868,
        0.0,
        0.0,
        99.99999999999868,
        -1.629206793918314e-05,
        0.0,
        2.978023846945087e-14,
        134.11827087402344,
        -95.50531768798828,
        1.0
      ],
      "name": "Cylinder.006"
    },
    {
      "mesh": 2,
      "name": "Cylinder.006_Scope_0"
    }
  ],
  "samplers": [
    {
      "magFilter": 9729,
      "minFilter": 9987,
      "wrapS": 10497,
      "wrapT": 10497
    }
  ],
  "scene": 0,
  "scenes": [
    {
      "name": "Sketchfab_Scene",
      "nodes": [
        0
      ]
    }
  ],
  "textures": [
    {
      "sampler": 0,
      "source": 0
    },
    {
      "sampler": 0,
      "source": 1
    },
    {
      "sampler": 0,
      "source": 2
    },
    {
      "sampler": 0,
      "source": 3
    },
    {
      "sampler": 0,
      "source": 4
    },
    {
      "sampler": 0,
      "source": 5
    },
    {
      "sampler": 0,
      "source": 6
    },
    {
      "sampler": 0,
      "source": 7
    },
    {
      "sampler": 0,
      "source": 8
    },
    {
      "sampler": 0,
      "source": 9
    }
  ]
}
