{
  "accessors": [
    {
      "bufferView": 2,
      "componentType": 5126,
      "count": 9490,
      "max": [
        7.377749919891357,
        3.306989908218384,
        25.673019409179688
      ],
      "min": [
        -7.350339889526367,
        -4.620039939880371,
        -0.025839999318122864
      ],
      "type": "VEC3"
    },
    {
      "bufferView": 2,
      "byteOffset": 113880,
      "componentType": 5126,
      "count": 9490,
      "max": [
        1.0,
        1.0,
        1.0
      ],
      "min": [
        -1.0,
        -1.0,
        -1.0
      ],
      "type": "VEC3"
    },
    {
      "bufferView": 1,
      "componentType": 5126,
      "count": 9490,
      "max": [
        0.9995700120925903,
        0.9995700120925903
      ],
      "min": [
        0.0004299999854993075,
        0.0004299999854993075
      ],
      "type": "VEC2"
    },
    {
      "bufferView": 1,
      "byteOffset": 75920,
      "componentType": 5126,
      "count": 9490,
      "max": [
        0.9995700120925903,
        0.9995700120925903
      ],
      "min": [
        0.0004299999854993075,
        0.0004299999854993075
      ],
      "type": "VEC2"
    },
    {
      "bufferView": 1,
      "byteOffset": 151840,
      "componentType": 5126,
      "count": 9490,
      "max": [
        0.9995700120925903,
        0.9995700120925903
      ],
      "min": [
        0.0004299999854993075,
        0.0004299999854993075
      ],
      "type": "VEC2"
    },
    {
      "bufferView": 1,
      "byteOffset": 227760,
      "componentType": 5126,
      "count": 9490,
      "max": [
        0.9995700120925903,
        0.9995700120925903
      ],
      "min": [
        0.0004299999854993075,
        0.0004299999854993075
      ],
      "type": "VEC2"
    },
    {
      "bufferView": 0,
      "componentType": 5125,
      "count": 26652,
      "type": "SCALAR"
    }
  ],
  "asset": {
    "extras": {
      "author": "Hiago Tadeu (https://sketchfab.com/HiagoTadeu)",
      "license": "CC-BY-4.0 (http://creativecommons.org/licenses/by/4.0/)",
      "source": "https://sketchfab.com/3d-models/gundam-zako-3-0fbcea94273d43ecbb0e9d278bb1ea8e",
      "title": "Gundam ZAKO - 3"
    },
    "generator": "Sketchfab-12.66.0",
    "version": "2.0"
  },
  "bufferViews": [
    {
      "buffer": 0,
      "byteLength": 106608,
      "name": "floatBufferViews",
      "target": 34963
    },
    {
      "buffer": 0,
      "byteLength": 303680,
      "byteOffset": 106608,
      "byteStride": 8,
      "name": "floatBufferViews",
      "target": 34962
    },
    {
      "buffer": 0,
      "byteLength": 227760,
      "byteOffset": 410288,
      "byteStride": 12,
      "name": "floatBufferViews",
      "target": 34962
    }
  ],
  "buffers": [
    {
      "byteLength": 638048,
      "uri": "scene.bin"
    }
  ],
  "images": [
    {
      "uri": "textures/ENEMY_ZAKO_3_baseColor.png"
    }
  ],
  "materials": [
    {
      "doubleSided": true,
      "name": "ENEMY_ZAKO_3",
      "pbrMetallicRoughness": {
        "baseColorTexture": {
          "index": 0
        },
        "metallicFactor": 0.0,
        "roughnessFactor": 0.6
      }
    }
  ],
  "meshes": [
    {
      "name": "ENEMY_ZAKO_3_0",
      "primitives": [
        {
          "attributes": {
            "NORMAL": 1,
            "POSITION": 0,
            "TEXCOORD_0": 2,
            "TEXCOORD_1": 3,
            "TEXCOORD_2": 4,
            "TEXCOORD_3": 5
          },
          "indices": 6,
          "material": 0,
          "mode": 4
        }
      ]
    }
  ],
  "nodes": [
    {
      "children": [
        1
      ],
      "matrix": [
        1.0,
        0.0,
        0.0,
        0.0,
        0.0,
        2.220446049250313e-16,
        -1.0,
        0.0,
        0.0,
        1.0,
        2.220446049250313e-16,
        0.0,
        0.0,
        0.0,
        0.0,
        1.0
      ],
      "name": "Sketchfab_model"
    },
    {
      "children": [
        2,
        4
      ],
      "name": "Root"
    },
    {
      "children": [
        3
      ],
      "matrix": [
        0.29328000000000004,
        0.0,
        0.0,
        0.0,
        0.0,
        0.29328000000000004,
        0.0,
        0.0,
        0.0,
        0.0,
        0.29328000000000004,
        0.0,
        0.0,
        0.0,
        0.0,
        1.0
      ],
      "name": "ENEMY_ZAKO_3"
    },
    {
      "mesh": 0,
      "name": "ENEMY_ZAKO_3_0"
    },
    {
      "children": [
        5
      ],
      "matrix": [
        1.0,
        0.0,
        0.0,
        0.0,
        0.0,
        1.0,
        0.0,
        0.0,
        0.0,
        0.0,
        1.0,
        0.0,
        -0.6717200000000002,
        -1.09595,
        12.245869999999998,
        1.0
      ],
      "name": "Hemi"
    },
    {
      "name": "Hemi"
    }
  ],
  "samplers": [
    {
      "magFilter": 9729,
      "minFilter": 9987,
      "wrapS": 10497,
      "wrapT": 10497
    }
  ],
  "scene": 0,
  "scenes": [
    {
      "name": "Sketchfab_Scene",
      "nodes": [
        0
      ]
    }
  ],
  "textures": [
    {
      "sampler": 0,
      "source": 0
    }
  ]
}
