{
  "accessors": [
    {
      "bufferView": 2,
      "componentType": 5126,
      "count": 163,
      "max": [
        1.2704999446868896,
        1.090000033378601,
        2.2973999977111816
      ],
      "min": [
        -1.3134000301361084,
        -1.1687999963760376,
        -0.3249000012874603
      ],
      "type": "VEC3"
    },
    {
      "bufferView": 2,
      "byteOffset": 1956,
      "componentType": 5126,
      "count": 163,
      "max": [
        0.9957206845283508,
        0.9755071997642517,
        0.9641358852386475
      ],
      "min": [
        -0.9827376008033752,
        -0.9918871521949768,
        -0.9777598977088928
      ],
      "type": "VEC3"
    },
    {
      "bufferView": 3,
      "componentType": 5126,
      "count": 163,
      "max": [
        0.991476833820343,
        0.985928475856781,
        0.5587021708488464,
        1.0
      ],
      "min": [
        -0.997903048992157,
        -0.9947105646133423,
        -0.667287290096283,
        1.0
      ],
      "type": "VEC4"
    },
    {
      "bufferView": 1,
      "componentType": 5126,
      "count": 163,
      "max": [
        0.9918000102043152,
        0.9509999752044678
      ],
      "min": [
        0.006500000134110451,
        0.04830000177025795
      ],
      "type": "VEC2"
    },
    {
      "bufferView": 0,
      "componentType": 5125,
      "count": 900,
      "type": "SCALAR"
    }
  ],
  "asset": {
    "extras": {
      "author": "AkinD (https://sketchfab.com/akinaty)",
      "license": "CC-BY-4.0 (http://creativecommons.org/licenses/by/4.0/)",
      "source": "https://sketchfab.com/3d-models/asteroide-low-poly-c9e06fdad0374345b5c516b89a57d1ec",
      "title": "Astéroïde Low Poly"
    },
    "generator": "Sketchfab-12.68.0",
    "version": "2.0"
  },
  "bufferViews": [
    {
      "buffer": 0,
      "byteLength": 3600,
      "name": "floatBufferViews",
      "target": 34963
    },
    {
      "buffer": 0,
      "byteLength": 1304,
      "byteOffset": 3600,
      "byteStride": 8,
      "name": "floatBufferViews",
      "target": 34962
    },
    {
      "buffer": 0,
      "byteLength": 3912,
      "byteOffset": 4904,
      "byteStride": 12,
      "name": "floatBufferViews",
      "target": 34962
    },
    {
      "buffer": 0,
      "byteLength": 2608,
      "byteOffset": 8816,
      "byteStride": 16,
      "name": "floatBufferViews",
      "target": 34962
    }
  ],
  "buffers": [
    {
      "byteLength": 11424,
      "uri": "scene.bin"
    }
  ],
  "images": [
    {
      "uri": "textures/Scene_-_Root_baseColor.jpeg"
    },
    {
      "uri": "textures/Scene_-_Root_normal.jpeg"
    }
  ],
  "materials": [
    {
      "name": "Scene_-_Root",
      "normalTexture": {
        "index": 1,
        "scale": 0.65
      },
      "pbrMetallicRoughness": {
        "baseColorTexture": {
          "index": 0
        },
        "metallicFactor": 0.0,
        "roughnessFactor": 0.6
      }
    }
  ],
  "meshes": [
    {
      "name": "Object_0",
      "primitives": [
        {
          "attributes": {
            "NORMAL": 1,
            "POSITION": 0,
            "TANGENT": 2,
            "TEXCOORD_0": 3
          },
          "indices": 4,
          "material": 0,
          "mode": 4
        }
      ]
    }
  ],
  "nodes": [
    {
      "children": [
        1
      ],
      "matrix": [
        1.0,
        0.0,
        0.0,
        0.0,
        0.0,
        2.220446049250313e-16,
        -1.0,
        0.0,
        0.0,
        1.0,
        2.220446049250313e-16,
        0.0,
        0.0,
        0.0,
        0.0,
        1.0
      ],
      "name": "Sketchfab_model"
    },
    {
      "children": [
        2
      ],
      "name": "2eaa4f30d4994a96b8964612f0d88797.obj.cleaner"
    },
    {
      "mesh": 0,
      "name": "Object_2"
    }
  ],
  "samplers": [
    {
      "magFilter": 9729,
      "minFilter": 9987,
      "wrapS": 10497,
      "wrapT": 10497
    }
  ],
  "scene": 0,
  "scenes": [
    {
      "name": "Sketchfab_Scene",
      "nodes": [
        0
      ]
    }
  ],
  "textures": [
    {
      "sampler": 0,
      "source": 0
    },
    {
      "sampler": 0,
      "source": 1
    }
  ]
}
