{
  "accessors": [
    {
      "bufferView": 2,
      "componentType": 5126,
      "count": 3730,
      "max": [
        1.4672681093215942,
        81.8902816772461,
        1.3505730628967285
      ],
      "min": [
        -1.3505719900131226,
        -1.0,
        -1.6572422981262207
      ],
      "type": "VEC3"
    },
    {
      "bufferView": 2,
      "byteOffset": 44760,
      "componentType": 5126,
      "count": 3730,
      "max": [
        1.0,
        1.0,
        1.0
      ],
      "min": [
        -1.0,
        -1.0,
        -1.0
      ],
      "type": "VEC3"
    },
    {
      "bufferView": 1,
      "componentType": 5126,
      "count": 3730,
      "max": [
        1.0,
        1.0
      ],
      "min": [
        0.0,
        0.0
      ],
      "type": "VEC2"
    },
    {
      "bufferView": 0,
      "componentType": 5125,
      "count": 6540,
      "type": "SCALAR"
    },
    {
      "bufferView": 2,
      "byteOffset": 89520,
      "componentType": 5126,
      "count": 5380,
      "max": [
        1.1606260538101196,
        60.03970718383789,
        1.16062593460083
      ],
      "min": [
        -1.16062593460083,
        10.202482223510742,
        -1.16062593460083
      ],
      "type": "VEC3"
    },
    {
      "bufferView": 2,
      "byteOffset": 154080,
      "componentType": 5126,
      "count": 5380,
      "max": [
        0.9951848387718201,
        1.0,
        0.9951847791671753
      ],
      "min": [
        -0.9951847791671753,
        -0.971962571144104,
        -0.9951847791671753
      ],
      "type": "VEC3"
    },
    {
      "bufferView": 1,
      "byteOffset": 29840,
      "componentType": 5126,
      "count": 5380,
      "max": [
        1.0,
        1.0
      ],
      "min": [
        0.0,
        0.01000000536441803
      ],
      "type": "VEC2"
    },
    {
      "bufferView": 0,
      "byteOffset": 26160,
      "componentType": 5125,
      "count": 8256,
      "type": "SCALAR"
    },
    {
      "bufferView": 2,
      "byteOffset": 218640,
      "componentType": 5126,
      "count": 904,
      "max": [
        0.9571055173873901,
        68.55118560791016,
        0.9571057558059692
      ],
      "min": [
        -0.9571056365966797,
        60.03970718383789,
        -0.9571056365966797
      ],
      "type": "VEC3"
    },
    {
      "bufferView": 2,
      "byteOffset": 229488,
      "componentType": 5126,
      "count": 904,
      "max": [
        0.9951847195625305,
        1.0,
        0.9951847791671753
      ],
      "min": [
        -0.9951846599578857,
        -0.9987274408340454,
        -0.9951846599578857
      ],
      "type": "VEC3"
    },
    {
      "bufferView": 1,
      "byteOffset": 72880,
      "componentType": 5126,
      "count": 904,
      "max": [
        0.40122148394584656,
        0.4012215733528137
      ],
      "min": [
        0.09877845644950867,
        0.09877847135066986
      ],
      "type": "VEC2"
    },
    {
      "bufferView": 0,
      "byteOffset": 59184,
      "componentType": 5125,
      "count": 1536,
      "type": "SCALAR"
    },
    {
      "bufferView": 2,
      "byteOffset": 240336,
      "componentType": 5126,
      "count": 128,
      "max": [
        0.4745112657546997,
        73.62178802490234,
        0.47451096773147583
      ],
      "min": [
        -0.4745104908943176,
        68.55118560791016,
        -0.4745107591152191
      ],
      "type": "VEC3"
    },
    {
      "bufferView": 2,
      "byteOffset": 241872,
      "componentType": 5126,
      "count": 128,
      "max": [
        0.9951847195625305,
        5.849530992918517e-08,
        0.9951846599578857
      ],
      "min": [
        -0.9951846599578857,
        -5.8495455590446e-08,
        -0.9951846599578857
      ],
      "type": "VEC3"
    },
    {
      "bufferView": 1,
      "byteOffset": 80112,
      "componentType": 5126,
      "count": 128,
      "max": [
        0.3249720335006714,
        0.32497215270996094
      ],
      "min": [
        0.17502786219120026,
        0.17502780258655548
      ],
      "type": "VEC2"
    },
    {
      "bufferView": 0,
      "byteOffset": 65328,
      "componentType": 5125,
      "count": 192,
      "type": "SCALAR"
    },
    {
      "bufferView": 2,
      "byteOffset": 243408,
      "componentType": 5126,
      "count": 448,
      "max": [
        1.4672681093215942,
        26.549114227294922,
        0.20167267322540283
      ],
      "min": [
        1.0661228895187378,
        24.372264862060547,
        -0.20167267322540283
      ],
      "type": "VEC3"
    },
    {
      "bufferView": 2,
      "byteOffset": 248784,
      "componentType": 5126,
      "count": 448,
      "max": [
        1.0,
        0.8830007314682007,
        0.9998335838317871
      ],
      "min": [
        -1.0,
        -0.8830007314682007,
        -0.9998335838317871
      ],
      "type": "VEC3"
    },
    {
      "bufferView": 1,
      "byteOffset": 81136,
      "componentType": 5126,
      "count": 448,
      "max": [
        1.0,
        1.0
      ],
      "min": [
        0.0,
        0.01000000536441803
      ],
      "type": "VEC2"
    },
    {
      "bufferView": 0,
      "byteOffset": 66096,
      "componentType": 5125,
      "count": 756,
      "type": "SCALAR"
    },
    {
      "bufferView": 2,
      "byteOffset": 254160,
      "componentType": 5126,
      "count": 1120,
      "max": [
        1.318846583366394,
        308.3797302246094,
        1.3260793685913086
      ],
      "min": [
        -1.3188457489013672,
        81.54263305664063,
        -1.3260786533355713
      ],
      "type": "VEC3"
    },
    {
      "bufferView": 2,
      "byteOffset": 267600,
      "componentType": 5126,
      "count": 1120,
      "max": [
        0.995236873626709,
        0.8820575475692749,
        0.9951321482658386
      ],
      "min": [
        -0.9952368140220642,
        -1.0798606453477078e-09,
        -0.9951328635215759
      ],
      "type": "VEC3"
    },
    {
      "bufferView": 1,
      "byteOffset": 84720,
      "componentType": 5126,
      "count": 1120,
      "max": [
        1.0000001192092896,
        1.0
      ],
      "min": [
        0.0,
        0.5
      ],
      "type": "VEC2"
    },
    {
      "bufferView": 0,
      "byteOffset": 69120,
      "componentType": 5125,
      "count": 1632,
      "type": "SCALAR"
    },
    {
      "bufferView": 2,
      "byteOffset": 281040,
      "componentType": 5126,
      "count": 1120,
      "max": [
        0.5603959560394287,
        304.2639465332031,
        0.5634692311286926
      ],
      "min": [
        -0.5603956580162048,
        81.10466003417969,
        -0.5634689331054688
      ],
      "type": "VEC3"
    },
    {
      "bufferView": 2,
      "byteOffset": 294480,
      "componentType": 5126,
      "count": 1120,
      "max": [
        0.9952368140220642,
        0.8820229172706604,
        0.9951322674751282
      ],
      "min": [
        -0.9952368140220642,
        -3.8466901886025084e-10,
        -0.9951327443122864
      ],
      "type": "VEC3"
    },
    {
      "bufferView": 1,
      "byteOffset": 93680,
      "componentType": 5126,
      "count": 1120,
      "max": [
        1.0000001192092896,
        1.0
      ],
      "min": [
        0.0,
        0.5
      ],
      "type": "VEC2"
    },
    {
      "bufferView": 0,
      "byteOffset": 75648,
      "componentType": 5125,
      "count": 1632,
      "type": "SCALAR"
    }
  ],
  "asset": {
    "extras": {
      "author": "rkmorello (https://sketchfab.com/rkmorello)",
      "license": "CC-BY-4.0 (http://creativecommons.org/licenses/by/4.0/)",
      "source": "https://sketchfab.com/3d-models/obi-wans-lightsaber-6e40dabb7cf3455bae70cebbf107a8a9",
      "title": "Obi-Wan's LightSaber"
    },
    "generator": "Sketchfab-15.25.0",
    "version": "2.0"
  },
  "bufferViews": [
    {
      "buffer": 0,
      "byteLength": 82176,
      "name": "floatBufferViews",
      "target": 34963
    },
    {
      "buffer": 0,
      "byteLength": 102640,
      "byteOffset": 82176,
      "byteStride": 8,
      "name": "floatBufferViews",
      "target": 34962
    },
    {
      "buffer": 0,
      "byteLength": 307920,
      "byteOffset": 184816,
      "byteStride": 12,
      "name": "floatBufferViews",
      "target": 34962
    }
  ],
  "buffers": [
    {
      "byteLength": 492736,
      "uri": "scene.bin"
    }
  ],
  "extensionsUsed": [
    "KHR_materials_emissive_strength",
    "KHR_materials_specular"
  ],
  "materials": [
    {
      "doubleSided": true,
      "name": "Prata",
      "pbrMetallicRoughness": {
        "roughnessFactor": 0.154412
      }
    },
    {
      "doubleSided": true,
      "name": "Preto",
      "pbrMetallicRoughness": {
        "baseColorFactor": [
          0.00424185,
          0.00424185,
          0.00424185,
          1.0
        ],
        "metallicFactor": 0.0,
        "roughnessFactor": 0.5
      }
    },
    {
      "doubleSided": true,
      "name": "Dourado",
      "pbrMetallicRoughness": {
        "baseColorFactor": [
          1.0,
          0.590331,
          0.325916,
          1.0
        ],
        "metallicFactor": 0.955882,
        "roughnessFactor": 0.0
      }
    },
    {
      "doubleSided": true,
      "name": "Bronzeado",
      "pbrMetallicRoughness": {
        "baseColorFactor": [
          0.8,
          0.263882,
          0.131518,
          1.0
        ],
        "metallicFactor": 0.911765,
        "roughnessFactor": 0.0
      }
    },
    {
      "doubleSided": true,
      "name": "Prata.001",
      "pbrMetallicRoughness": {
        "roughnessFactor": 0.154412
      }
    },
    {
      "alphaMode": "BLEND",
      "doubleSided": true,
      "emissiveFactor": [
        0.008027044630183762,
        0.030093620842452158,
        0.40990987343505997
      ],
      "extensions": {
        "KHR_materials_emissive_strength": {
          "emissiveStrength": 10.0
        },
        "KHR_materials_specular": {
          "specularColorFactor": [
            1.0,
            1.0,
            1.0
          ],
          "specularFactor": 0.0
        }
      },
      "name": "BrilhoAzul",
      "pbrMetallicRoughness": {
        "baseColorFactor": [
          0.004275751006755475,
          0.0,
          1.0,
          0.7603832697394887
        ],
        "metallicFactor": 0.0,
        "roughnessFactor": 0.0
      }
    },
    {
      "doubleSided": true,
      "emissiveFactor": [
        1.0,
        1.0,
        1.0
      ],
      "extensions": {
        "KHR_materials_emissive_strength": {
          "emissiveStrength": 8.273320372888824
        }
      },
      "name": "BrilhoAzul.001",
      "pbrMetallicRoughness": {
        "metallicFactor": 0.0,
        "roughnessFactor": 0.5
      }
    }
  ],
  "meshes": [
    {
      "name": "Object_0",
      "primitives": [
        {
          "attributes": {
            "NORMAL": 1,
            "POSITION": 0,
            "TEXCOORD_0": 2
          },
          "indices": 3,
          "material": 0,
          "mode": 4
        }
      ]
    },
    {
      "name": "Object_1",
      "primitives": [
        {
          "attributes": {
            "NORMAL": 5,
            "POSITION": 4,
            "TEXCOORD_0": 6
          },
          "indices": 7,
          "material": 1,
          "mode": 4
        }
      ]
    },
    {
      "name": "Object_2",
      "primitives": [
        {
          "attributes": {
            "NORMAL": 9,
            "POSITION": 8,
            "TEXCOORD_0": 10
          },
          "indices": 11,
          "material": 2,
          "mode": 4
        }
      ]
    },
    {
      "name": "Object_3",
      "primitives": [
        {
          "attributes": {
            "NORMAL": 13,
            "POSITION": 12,
            "TEXCOORD_0": 14
          },
          "indices": 15,
          "material": 3,
          "mode": 4
        }
      ]
    },
    {
      "name": "Object_4",
      "primitives": [
        {
          "attributes": {
            "NORMAL": 17,
            "POSITION": 16,
            "TEXCOORD_0": 18
          },
          "indices": 19,
          "material": 4,
          "mode": 4
        }
      ]
    },
    {
      "name": "Object_5",
      "primitives": [
        {
          "attributes": {
            "NORMAL": 21,
            "POSITION": 20,
            "TEXCOORD_0": 22
          },
          "indices": 23,
          "material": 5,
          "mode": 4
        }
      ]
    },
    {
      "name": "Object_6",
      "primitives": [
        {
          "attributes": {
            "NORMAL": 25,
            "POSITION": 24,
            "TEXCOORD_0": 26
          },
          "indices": 27,
          "material": 6,
          "mode": 4
        }
      ]
    }
  ],
  "nodes": [
    {
      "children": [
        1
      ],
      "matrix": [
        1.0,
        0.0,
        0.0,
        0.0,
        0.0,
        2.220446049250313e-16,
        -1.0,
        0.0,
        0.0,
        1.0,
        2.220446049250313e-16,
        0.0,
        0.0,
        0.0,
        0.0,
        1.0
      ],
      "name": "Sketchfab_model"
    },
    {
      "children": [
        2
      ],
      "name": "root"
    },
    {
      "children": [
        3
      ],
      "matrix": [
        1.0,
        0.0,
        0.0,
        0.0,
        0.0,
        2.220446049250313e-16,
        1.0,
        0.0,
        0.0,
        -1.0,
        2.220446049250313e-16,
        0.0,
        0.0,
        0.0,
        0.0,
        1.0
      ],
      "name": "GLTF_SceneRootNode"
    },
    {
      "children": [
        4,
        5,
        6,
        7,
        8,
        9,
        10
      ],
      "matrix": [
        0.3117886483669281,
        0.0,
        0.0,
        0.0,
        -0.0,
        0.0448150202252537,
        -0.035955243646106645,
        0.0,
        0.0,
        0.19404992099292792,
        0.24186600484763005,
        0.0,
        0.0,
        -2.306994676589966,
        6.544113636016846,
        1.0
      ],
      "name": "Cylinder_0"
    },
    {
      "mesh": 0,
      "name": "Object_4"
    },
    {
      "mesh": 1,
      "name": "Object_5"
    },
    {
      "mesh": 2,
      "name": "Object_6"
    },
    {
      "mesh": 3,
      "name": "Object_7"
    },
    {
      "mesh": 4,
      "name": "Object_8"
    },
    {
      "mesh": 5,
      "name": "Object_9"
    },
    {
      "mesh": 6,
      "name": "Object_10"
    }
  ],
  "scene": 0,
  "scenes": [
    {
      "name": "Sketchfab_Scene",
      "nodes": [
        0
      ]
    }
  ]
}
